<svg xmlns="http://www.w3.org/2000/svg" width="32.418" height="46.001" viewBox="0 0 32.418 46.001">
  <g id="Group_16" data-name="Group 16" transform="translate(0 0)">
    <g id="Group_5" data-name="Group 5" transform="translate(1.038 0)">
      <path id="Path_5" data-name="Path 5" d="M-1.553-.519A9.87,9.87,0,0,0-8.724,2.454a9.8,9.8,0,0,0-2.931,7.128,9.941,9.941,0,0,0,2.931,7.171,9.94,9.94,0,0,0,7.171,2.929,9.794,9.794,0,0,0,7.127-2.929A9.871,9.871,0,0,0,8.549,9.583,9.727,9.727,0,0,0,5.574,2.454,9.726,9.726,0,0,0-1.553-.519m0-5.073A14.522,14.522,0,0,1,9.161-1.132a14.545,14.545,0,0,1,4.5,10.714,14.358,14.358,0,0,1-4.5,10.712,14.522,14.522,0,0,1-10.714,4.46,14.517,14.517,0,0,1-10.713-4.46A14.514,14.514,0,0,1-16.726,9.583,14.609,14.609,0,0,1-12.267-1.132,14.424,14.424,0,0,1-1.553-5.592" transform="translate(16.726 5.592)" fill="#222e46"/>
    </g>
    <g id="Group_10" data-name="Group 10" transform="translate(0 36.039)">
      <path id="Path_10" data-name="Path 10" d="M-1.659-1.02a22.465,22.465,0,0,1-16.2-6.74l3.658-3.209-1.829,1.6,1.821-1.615A17.528,17.528,0,0,0-1.659-5.886a17.8,17.8,0,0,0,12.579-5.1l3.638,3.233A22.681,22.681,0,0,1-1.659-1.02" transform="translate(17.859 10.981)" fill="#fac112"/>
    </g>
  </g>
</svg>
