<svg xmlns="http://www.w3.org/2000/svg" width="25.673" height="30.048" viewBox="0 0 25.673 30.048">
  <g id="Group_97" data-name="Group 97" transform="translate(0 0)">
    <path id="Path_83" data-name="Path 83" d="M-1.708,0A14.519,14.519,0,0,1,4.115,1.169,15.277,15.277,0,0,1,8.9,4.416l-3.55,3.55A9.628,9.628,0,0,0-1.708,5.023,9.788,9.788,0,0,0-5.6,5.8,10.049,10.049,0,0,0-8.787,7.945a10.376,10.376,0,0,0-2.166,3.181,9.556,9.556,0,0,0-.8,3.9,9.553,9.553,0,0,0,.8,3.9A10.586,10.586,0,0,0-8.809,22.1a9.744,9.744,0,0,0,3.182,2.143,9.951,9.951,0,0,0,3.919.779,9.793,9.793,0,0,0,7.057-2.9L8.9,25.631a15.279,15.279,0,0,1-4.785,3.248,14.534,14.534,0,0,1-5.823,1.169,14.426,14.426,0,0,1-5.844-1.191,15.571,15.571,0,0,1-4.784-3.225,15.14,15.14,0,0,1-3.248-4.762,14.448,14.448,0,0,1-1.19-5.845,14.392,14.392,0,0,1,1.19-5.78,15.325,15.325,0,0,1,3.248-4.806A15.414,15.414,0,0,1-7.552,1.191,14.456,14.456,0,0,1-1.708,0" transform="translate(16.774 0)" fill="#222e46"/>
  </g>
</svg>
