<svg xmlns="http://www.w3.org/2000/svg" width="30.089" height="30.047" viewBox="0 0 30.089 30.047">
  <g id="Group_98" data-name="Group 98" transform="translate(0 0)">
    <path id="Path_84" data-name="Path 84" d="M-1.7-.569A9.775,9.775,0,0,0-8.8,2.375a9.7,9.7,0,0,0-2.9,7.058,9.846,9.846,0,0,0,2.9,7.1,9.844,9.844,0,0,0,7.1,2.9,9.7,9.7,0,0,0,7.057-2.9A9.772,9.772,0,0,0,8.3,9.433,9.63,9.63,0,0,0,5.354,2.375,9.631,9.631,0,0,0-1.7-.569m0-5.023A14.375,14.375,0,0,1,8.9-1.176,14.4,14.4,0,0,1,13.363,9.433,14.214,14.214,0,0,1,8.9,20.039,14.375,14.375,0,0,1-1.7,24.456a14.372,14.372,0,0,1-10.607-4.416A14.371,14.371,0,0,1-16.726,9.433,14.465,14.465,0,0,1-12.311-1.176,14.28,14.28,0,0,1-1.7-5.592" transform="translate(16.726 5.592)" fill="#222e46"/>
  </g>
</svg>
