<svg xmlns="http://www.w3.org/2000/svg" width="24.482" height="29.396" viewBox="0 0 24.482 29.396">
  <g id="Group_102" data-name="Group 102" transform="translate(0 0)">
    <path id="Path_88" data-name="Path 88" d="M-1.666-.557h-9.827V9.185l9.827.042a4.681,4.681,0,0,0,3.43-1.441A4.729,4.729,0,0,0,3.205,4.315,4.682,4.682,0,0,0,1.764.884,4.684,4.684,0,0,0-1.666-.557m4.15,24.483-5.676-9.786h-8.3v9.786h-4.871v-29.4h14.7a9.424,9.424,0,0,1,6.9,2.88,9.424,9.424,0,0,1,2.88,6.905A9.506,9.506,0,0,1,6.381,9.864,9.479,9.479,0,0,1,2.06,13.379L8.118,23.926Z" transform="translate(16.364 5.471)" fill="#222e46"/>
  </g>
</svg>
